<svg width="24" height="24" viewBox="0 0 24 24" fill="none" xmlns="http://www.w3.org/2000/svg">
<path fill-rule="evenodd" clip-rule="evenodd" d="M8 3C7.44772 3 7 3.44772 7 4V20C7 20.5523 7.44772 21 8 21H16C16.5523 21 17 20.5523 17 20V4C17 3.44772 16.5523 3 16 3H15.5V3.4C15.5 4.00751 15.0075 4.5 14.4 4.5H9.6C8.99249 4.5 8.5 4.00751 8.5 3.4V3H8ZM5 4C5 2.34315 6.34315 1 8 1H16C17.6569 1 19 2.34315 19 4V20C19 21.6569 17.6569 23 16 23H8C6.34315 23 5 21.6569 5 20V4Z" fill="#86868B"/>
<path fill-rule="evenodd" clip-rule="evenodd" d="M14.5 6C15.0523 6 15.5 6.44772 15.5 7V11C15.5 11.5523 15.0523 12 14.5 12C13.9477 12 13.5 11.5523 13.5 11V7C13.5 6.44772 13.9477 6 14.5 6ZM12 7.33333C12.5523 7.33333 13 7.78105 13 8.33333V11C13 11.5523 12.5523 12 12 12C11.4477 12 11 11.5523 11 11V8.33333C11 7.78105 11.4477 7.33333 12 7.33333ZM9.5 9C10.0523 9 10.5 9.44772 10.5 10V11C10.5 11.5523 10.0523 12 9.5 12C8.94772 12 8.5 11.5523 8.5 11V10C8.5 9.44772 8.94772 9 9.5 9ZM8.5 18C8.5 17.4477 8.94772 17 9.5 17H14.5C15.0523 17 15.5 17.4477 15.5 18V18.5C15.5 19.0523 15.0523 19.5 14.5 19.5H9.5C8.94772 19.5 8.5 19.0523 8.5 18.5V18Z" fill="#86868B"/>
<path fill-rule="evenodd" clip-rule="evenodd" d="M8.5 14.5C8.5 13.9477 8.94772 13.5 9.5 13.5H14.5C15.0523 13.5 15.5 13.9477 15.5 14.5V15C15.5 15.5523 15.0523 16 14.5 16H9.5C8.94772 16 8.5 15.5523 8.5 15V14.5Z" fill="#86868B"/>
</svg>
