<svg width="24" height="24" viewBox="0 0 24 24" fill="none" xmlns="http://www.w3.org/2000/svg">
<path d="M15.9 5H5C3.3 5 2 6.4 2 8V16C2 17.7 3.4 19 5 19H15.9C17.6 19 18.9 17.6 18.9 16V8.1C19 6.4 17.6 5 15.9 5ZM17 16C17 16.6 16.5 17 16 17H5C4.4 17 4 16.5 4 16V8.1C4 7.5 4.5 7.1 5 7.1H15.9C16.5 7.1 17 7.5 17 8V16Z" fill="#86868B"/>
<path d="M21 9.1001C20.4 9.1001 20 9.5001 20 10.1001V15.1001C20 15.7001 20.4 16.1001 21 16.1001C21.6 16.1001 22 15.7001 22 15.1001V10.1001C22 9.5001 21.5 9.1001 21 9.1001Z" fill="#86868B"/>
<path d="M6 8C5.4 8 5 8.4 5 9V15C5 15.6 5.4 16 6 16C6.6 16 7 15.6 7 15V9C7 8.4 6.5 8 6 8Z" fill="#86868B"/>
<path d="M10 8C9.4 8 9 8.4 9 9V15C9 15.6 9.4 16 10 16C10.6 16 11 15.6 11 15V9C11 8.4 10.5 8 10 8Z" fill="#86868B"/>
<path d="M14 8C13.4 8 13 8.4 13 9V15C13 15.6 13.4 16 14 16C14.6 16 15 15.6 15 15V9C15 8.4 14.6 8 14 8Z" fill="#86868B"/>
</svg>
