<svg width="24" height="24" viewBox="0 0 24 24" fill="none" xmlns="http://www.w3.org/2000/svg">
<g clip-path="url(#clip0_347_23695)">
<path d="M22.6666 11.4166C22.5833 11.2499 20.5 5.33325 13.6666 5.33325C13.5833 5.33325 13.5833 5.33325 13.5833 5.33325C10.4166 5.33325 8.41665 6.83325 7.16665 7.99992C5.91665 9.33325 5.41665 10.6666 5.41665 10.7499C5.33331 10.9999 5.41665 11.1666 5.49998 11.4166L5.58331 11.4999L5.49998 11.6666C5.41665 11.8333 5.33331 12.0833 5.33331 12.2499C5.33331 12.3333 5.41665 14.7499 6.33331 17.2499C6.33331 17.4166 6.49998 17.5833 6.66665 17.6666C6.99998 17.9166 8.41665 18.6666 9.58331 18.6666C9.83331 18.6666 9.99998 18.6666 10.3333 18.4999C10.9166 18.2499 11.4166 17.9166 12.3333 17.0833C12.9166 16.5833 13.5 15.9999 14.0833 15.6666C14.8333 15.1666 15.0833 15.2499 15.0833 15.2499C16.5 15.5833 17.8333 15.8333 18.8333 15.7499C19.5833 15.6666 20.9166 15.1666 21.4166 14.9166C22.5833 14.4166 23.3333 13.9166 23.5833 13.5833C23.8333 13.2499 23.8333 12.9166 23.8333 12.6666C23.75 12.0833 22.75 11.4166 22.6666 11.4166ZM7.08331 12.5833C7.08331 12.4166 7.16665 12.2499 7.16665 12.0833L10.4166 13.2499C9.74998 14.1666 9.16665 13.9999 8.91665 13.9166L7.16665 13.3333C7.08331 12.9999 7.08331 12.7499 7.08331 12.5833ZM18.75 14.2499C17.9166 14.2499 16.75 13.9999 15.4166 13.7499C14.0833 13.4166 12.6666 14.6666 11.25 15.9166C10.75 16.3333 10.0833 16.9166 9.83331 16.9999C9.41665 17.0833 8.58331 16.7499 7.83331 16.4166C7.66665 15.9999 7.58331 15.5833 7.49998 15.2499L8.33331 15.4999C8.58331 15.5833 8.91665 15.6666 9.24998 15.6666C10.1666 15.6666 11.25 15.1666 12.3333 13.4166C12.75 12.8333 12.25 12.1666 11.5833 11.9166L7.41665 10.2632C8.16665 8.92988 10.25 6.92988 13.6666 6.92988C19.1666 7.01321 20.5833 10.7499 20.8333 11.2499C21 11.7499 21.25 12.3333 21.6666 12.8333C21.75 12.9166 21.8333 12.9166 21.9166 12.9999C21.0833 13.4999 19.3333 14.1666 18.75 14.2499Z" fill="#86868B"/>
<path d="M3.41665 14.4166C3.08331 14.0832 2.58331 13.9999 2.24998 14.3332L1.66665 14.9166C1.33331 15.2499 1.24998 15.7499 1.58331 16.0832C1.91665 16.4166 2.41665 16.4999 2.74998 16.1666L3.33331 15.5832C3.74998 15.2499 3.66665 14.7499 3.41665 14.4166ZM3.66665 9.66656C3.99998 9.33323 4.08331 8.83323 3.74998 8.49989L3.16665 7.91656C2.83331 7.49989 2.33331 7.49989 1.99998 7.83323C1.66665 8.16656 1.58331 8.66656 1.91665 8.99989L2.49998 9.58323C2.74998 9.91656 3.33331 10.0832 3.66665 9.66656ZM1.91665 12.7499C2.16665 12.7499 2.33331 12.7499 2.49998 12.5832C2.74998 12.3332 2.83331 12.1666 2.83331 11.9999C2.83331 11.4999 2.49998 11.1666 2.08331 11.1666L1.16665 11.0832C0.74998 11.1666 0.333313 11.4999 0.333313 11.9166C0.333313 12.3332 0.666646 12.6666 1.08331 12.7499H1.91665Z" fill="#86868B"/>
</g>
<defs>
<clipPath id="clip0_347_23695">
<rect width="23.5" height="13.3333" fill="white" transform="translate(0.333313 5.33325)"/>
</clipPath>
</defs>
</svg>
