<svg width="24" height="24" viewBox="0 0 24 24" fill="none" xmlns="http://www.w3.org/2000/svg">
<path d="M10.293 9.83841C10.6054 9.52599 10.6054 9.01946 10.293 8.70704C9.98054 8.39462 9.47401 8.39462 9.16159 8.70704L10.293 9.83841ZM7 12L6.43431 11.4343C6.28429 11.5843 6.2 11.7878 6.2 12C6.2 12.2122 6.28429 12.4157 6.43431 12.5657L7 12ZM9.16159 15.293C9.47401 15.6054 9.98054 15.6054 10.293 15.293C10.6054 14.9805 10.6054 14.474 10.293 14.1616L9.16159 15.293ZM14.8384 8.70704C14.526 8.39462 14.0195 8.39462 13.707 8.70704C13.3946 9.01946 13.3946 9.52599 13.707 9.83841L14.8384 8.70704ZM17 12L17.5657 12.5657C17.7157 12.4157 17.8 12.2122 17.8 12C17.8 11.7878 17.7157 11.5843 17.5657 11.4343L17 12ZM13.707 14.1616C13.3946 14.474 13.3946 14.9805 13.707 15.293C14.0195 15.6054 14.526 15.6054 14.8384 15.293L13.707 14.1616ZM9 5.8H15V4.2H9V5.8ZM15 18.2H9V19.8H15V18.2ZM9 18.2C5.57584 18.2 2.8 15.4242 2.8 12H1.2C1.2 16.3078 4.69218 19.8 9 19.8V18.2ZM21.2 12C21.2 15.4242 18.4242 18.2 15 18.2V19.8C19.3078 19.8 22.8 16.3078 22.8 12H21.2ZM15 5.8C18.4242 5.8 21.2 8.57583 21.2 12H22.8C22.8 7.69218 19.3078 4.2 15 4.2V5.8ZM9 4.2C4.69218 4.2 1.2 7.69218 1.2 12H2.8C2.8 8.57583 5.57583 5.8 9 5.8V4.2ZM9.16159 8.70704L6.43431 11.4343L7.56569 12.5657L10.293 9.83841L9.16159 8.70704ZM6.43431 12.5657L9.16159 15.293L10.293 14.1616L7.56569 11.4343L6.43431 12.5657ZM13.707 9.83841L16.4343 12.5657L17.5657 11.4343L14.8384 8.70704L13.707 9.83841ZM16.4343 11.4343L13.707 14.1616L14.8384 15.293L17.5657 12.5657L16.4343 11.4343Z" fill="#86868B"/>
</svg>
