<svg width="30" height="31" viewBox="0 0 30 31" fill="none" xmlns="http://www.w3.org/2000/svg">
<g clip-path="url(#clip0_590_60254)">
<path fill-rule="evenodd" clip-rule="evenodd" d="M27.8488 14.0845C28.1643 14.5423 28.7568 15.204 29.7318 15.6143C29.89 15.6809 30 15.8326 30 16.0043V16.5182C30 16.6482 29.9376 16.7697 29.8304 16.8433C29.3489 17.1741 27.9155 18.1247 26.4821 18.7407C25.7283 19.1187 23.718 19.8746 22.5873 20.0005C21.0796 20.1265 19.195 19.7486 16.9335 19.2447C16.9335 19.2447 16.5566 19.1187 15.4258 19.8746C14.5464 20.5045 13.6669 21.2603 12.7875 22.0162L12.7874 22.0162C11.2797 23.276 10.4003 23.9059 9.64644 24.1579C9.39516 24.2839 9.01824 24.2839 8.76696 24.2839C6.88237 24.2839 4.87214 23.1501 4.36959 22.7721C4.11831 22.6461 3.99267 22.3942 3.86703 22.1422C3.05061 19.9096 2.67263 17.7209 2.5 16.2774L6.2428 17.7745C6.56937 17.9051 6.94042 17.856 7.22181 17.645L9.28834 16.0951L2.81787 13.5314L2.73628 13.4495C2.485 13.1976 2.485 12.8196 2.61064 12.4417C2.63698 12.4153 2.68543 12.3058 2.76293 12.1306C3.05499 11.4703 3.75967 9.87732 5.24906 8.28432C6.88237 6.39461 10.0234 4.12695 14.672 4.12695H14.7976C23.0885 4.12695 26.4823 9.53717 27.3309 12.3476L22.5163 14.423L23.8125 15.3169C24.0987 15.5143 24.4664 15.5502 24.7854 15.412L27.8488 14.0845Z" fill="#1D1D1F"/>
</g>
<defs>
<clipPath id="clip0_590_60254">
<rect width="30" height="30" fill="white" transform="translate(0 0.376953)"/>
</clipPath>
</defs>
</svg>
