<svg width="30" height="31" viewBox="0 0 30 31" fill="none" xmlns="http://www.w3.org/2000/svg">
<path fill-rule="evenodd" clip-rule="evenodd" d="M11.0627 5.13965C5.40868 5.13965 0.825195 9.72313 0.825195 15.3771C0.825195 21.0312 5.40868 25.6146 11.0627 25.6146H18.9377C24.5917 25.6146 29.1752 21.0312 29.1752 15.3771C29.1752 9.72313 24.5917 5.13965 18.9377 5.13965H11.0627ZM12.5829 12.3633C12.8953 12.0509 12.8953 11.5444 12.5829 11.2319C12.2705 10.9195 11.764 10.9195 11.4516 11.2319L7.87201 14.8115C7.72198 14.9615 7.63769 15.165 7.63769 15.3772C7.63769 15.5893 7.72198 15.7928 7.87201 15.9429L11.4516 19.5224C11.764 19.8348 12.2705 19.8348 12.5829 19.5224C12.8953 19.21 12.8953 18.7035 12.5829 18.391L9.56906 15.3772L12.5829 12.3633ZM18.5488 11.2319C18.2364 10.9195 17.7299 10.9195 17.4175 11.2319C17.105 11.5444 17.105 12.0509 17.4175 12.3633L20.4313 15.3772L17.4175 18.391C17.105 18.7035 17.105 19.21 17.4175 19.5224C17.7299 19.8348 18.2364 19.8348 18.5488 19.5224L22.1284 15.9429C22.2784 15.7928 22.3627 15.5893 22.3627 15.3772C22.3627 15.165 22.2784 14.9615 22.1284 14.8115L18.5488 11.2319Z" fill="#1D1D1F"/>
</svg>
