<svg width="30" height="31" viewBox="0 0 30 31" fill="none" xmlns="http://www.w3.org/2000/svg">
<path d="M24.75 18.627C24.75 22.2168 21.8399 25.127 18.25 25.127C15.8291 25.127 13.7173 23.8035 12.5987 21.8405C12.319 21.8646 12.0359 21.877 11.75 21.877C10.765 21.877 9.81406 21.7309 8.91774 21.4592C10.1312 25.4627 13.8503 28.377 18.25 28.377C23.6348 28.377 28 24.0117 28 18.627C28 14.2272 25.0858 10.5081 21.0823 9.2947C21.3539 10.191 21.5 11.1419 21.5 12.127C21.5 12.4129 21.4877 12.6959 21.4636 12.9756C23.4265 14.0942 24.75 16.206 24.75 18.627Z" fill="#1D1D1F"/>
<path d="M21.2402 14.3722C20.3944 13.7767 19.363 13.427 18.25 13.427C18.2064 13.427 18.163 13.4275 18.1196 13.4286C17.6023 15.9741 15.5972 17.9792 13.0516 18.4966C13.0505 18.5399 13.05 18.5834 13.05 18.627C13.05 19.74 13.3997 20.7714 13.9952 21.6172C17.5769 20.773 20.3961 17.9538 21.2402 14.3722Z" fill="#1D1D1F"/>
<path fill-rule="evenodd" clip-rule="evenodd" d="M11.75 2.37695C6.36522 2.37695 2 6.74218 2 12.127C2 15.9595 4.21127 19.2755 7.42757 20.8689C7.90358 21.1047 8.40161 21.3028 8.91774 21.4592C9.81406 21.7309 10.765 21.877 11.75 21.877C12.0359 21.877 12.319 21.8646 12.5987 21.8405C12.0586 20.8927 11.75 19.7959 11.75 18.627C11.75 15.0371 14.6601 12.127 18.25 12.127C19.4189 12.127 20.5158 12.4355 21.4636 12.9756C21.4877 12.6959 21.5 12.4129 21.5 12.127C21.5 11.1419 21.3539 10.191 21.0823 9.2947C20.9258 8.77856 20.7277 8.28054 20.4919 7.80452C18.8986 4.58823 15.5825 2.37695 11.75 2.37695ZM11.75 5.62695C8.16015 5.62695 5.25 8.5371 5.25 12.127C5.25 14.0121 6.05254 15.7099 7.33461 16.8971C7.69896 17.2346 8.10203 17.5307 8.53643 17.7783C8.94235 13.0706 12.6936 9.3193 17.4013 8.91338C17.1538 8.47899 16.8576 8.07591 16.5202 7.71156C15.3329 6.42949 13.6352 5.62695 11.75 5.62695Z" fill="#1D1D1F"/>
</svg>
