<svg width="30" height="31" viewBox="0 0 30 31" fill="none" xmlns="http://www.w3.org/2000/svg">
<path fill-rule="evenodd" clip-rule="evenodd" d="M7.98952 2.87695H24.6451C25.1172 2.87695 25.4993 3.2591 25.4993 3.73097V21.6642V21.6741C25.4975 21.9234 25.3884 22.1476 25.2165 22.3027C24.4541 23.0367 24.4564 24.573 25.2183 25.3059C25.4176 25.4872 25.5269 25.7589 25.4919 26.0425C25.4391 26.4704 25.0765 26.7924 24.6451 26.7924H7.98952C6.34134 26.7924 5.00099 25.452 5 23.8043V5.86647C5 4.21809 6.34134 2.87695 7.98952 2.87695ZM7.98952 25.0845H23.1377C22.8696 24.2665 22.8696 23.34 23.1377 22.5222H7.98952C7.28313 22.5222 6.70837 23.0969 6.70837 23.8033C6.70837 24.5097 7.28308 25.0845 7.98952 25.0845ZM14.2461 14.4647H15.6465C15.6504 14.1678 15.6914 13.9061 15.7695 13.6795C15.8477 13.453 15.998 13.2401 16.2207 13.0408C16.4746 12.8026 16.7109 12.5662 16.9297 12.3319C17.1484 12.0975 17.3242 11.8455 17.457 11.576C17.5898 11.3026 17.6562 10.994 17.6562 10.6502C17.6562 10.1698 17.5547 9.75959 17.3516 9.41975C17.1523 9.07991 16.8613 8.82209 16.4785 8.64631C16.0996 8.46663 15.6426 8.37678 15.1074 8.37678C14.623 8.37678 14.1855 8.46272 13.7949 8.63459C13.4043 8.80256 13.0938 9.05842 12.8633 9.40217C12.6328 9.74202 12.5117 10.1678 12.5 10.6795H14.0527C14.0605 10.4334 14.1133 10.2342 14.2109 10.0819C14.3086 9.92561 14.4375 9.81038 14.5977 9.73616C14.7578 9.66194 14.9277 9.62483 15.1074 9.62483C15.3262 9.62483 15.5078 9.6678 15.6523 9.75373C15.8008 9.83577 15.9121 9.95686 15.9863 10.117C16.0645 10.2772 16.1035 10.4764 16.1035 10.7147C16.1035 10.9256 16.0625 11.1151 15.9805 11.283C15.8984 11.4471 15.7852 11.6053 15.6406 11.7576C15.5 11.9061 15.3398 12.0643 15.1602 12.2323C14.9336 12.4471 14.7539 12.658 14.6211 12.8651C14.4883 13.0682 14.3926 13.2967 14.334 13.5506C14.2793 13.8045 14.25 14.1092 14.2461 14.4647ZM14.334 15.701C14.1777 15.8573 14.0996 16.0526 14.0996 16.2869C14.0996 16.5135 14.1777 16.7049 14.334 16.8612C14.4941 17.0174 14.709 17.0955 14.9785 17.0955C15.248 17.0955 15.4609 17.0174 15.6172 16.8612C15.7773 16.7049 15.8574 16.5135 15.8574 16.2869C15.8574 16.0526 15.7773 15.8573 15.6172 15.701C15.4609 15.5448 15.248 15.4666 14.9785 15.4666C14.709 15.4666 14.4941 15.5448 14.334 15.701Z" fill="#1D1D1F"/>
</svg>
