<svg width="30" height="31" viewBox="0 0 30 31" fill="none" xmlns="http://www.w3.org/2000/svg">
<path fill-rule="evenodd" clip-rule="evenodd" d="M1.64752 10.9879C0.592632 12.0193 0 13.4183 0 14.877C0 16.3356 0.592632 17.7346 1.64752 18.766C2.70242 19.7975 4.13316 20.377 5.625 20.377H24.375C25.8668 20.377 27.2976 19.7975 28.3525 18.766C29.4074 17.7346 30 16.3356 30 14.877C30 13.4183 29.4074 12.0193 28.3525 10.9879C27.2976 9.95642 25.8668 9.37695 24.375 9.37695H5.625C4.13316 9.37695 2.70242 9.95642 1.64752 10.9879ZM5.89959 14.2289C6.0754 14.057 6.31386 13.9604 6.5625 13.9604H23.4375C23.6861 13.9604 23.9246 14.057 24.1004 14.2289C24.2762 14.4008 24.375 14.634 24.375 14.8771C24.375 15.1202 24.2762 15.3534 24.1004 15.5253C23.9246 15.6972 23.6861 15.7938 23.4375 15.7938H6.5625C6.31386 15.7938 6.0754 15.6972 5.89959 15.5253C5.72377 15.3534 5.625 15.1202 5.625 14.8771C5.625 14.634 5.72377 14.4008 5.89959 14.2289Z" fill="#1D1D1F"/>
</svg>
