<svg width="24" height="24" viewBox="0 0 24 24" fill="none" xmlns="http://www.w3.org/2000/svg">
<g clip-path="url(#clip0_719_50141)">
<path d="M15.5683 11.1048C16.0317 10.6414 16.783 10.6414 17.2465 11.1048L22.5709 16.4293C23.0344 16.8927 23.0344 17.6441 22.5709 18.1075L17.2465 23.432C16.783 23.8954 16.0317 23.8954 15.5683 23.432C15.1048 22.9686 15.1048 22.2172 15.5683 21.7538L18.867 18.4551L1.38184 18.4551L1.38184 16.0817L18.867 16.0817L15.5683 12.783C15.1048 12.3196 15.1048 11.5683 15.5683 11.1048Z" fill="#86868B"/>
<path d="M7.89613 13.432C7.43271 13.8954 6.68135 13.8954 6.21793 13.432L0.893462 8.1075C0.430043 7.64408 0.430043 6.89273 0.893462 6.42931L6.21794 1.10484C6.68135 0.641421 7.43271 0.641421 7.89613 1.10484C8.35955 1.56826 8.35955 2.31961 7.89612 2.78303L4.59741 6.08175L22.0826 6.08175L22.0826 8.45507L4.59741 8.45507L7.89613 11.7538C8.35955 12.2172 8.35954 12.9686 7.89613 13.432Z" fill="#86868B"/>
</g>
<defs>
<clipPath id="clip0_719_50141">
<rect width="24" height="24" fill="white"/>
</clipPath>
</defs>
</svg>
